<svg xmlns="http://www.w3.org/2000/svg" width="80.567" height="119.024" viewBox="0 0 80.567 119.024">
  <g id="Group_54" data-name="Group 54" transform="translate(0)">
    <path id="Path_21" data-name="Path 21" d="M216.478,103.13s-4.178,4.178-4.7,12.682c0,0,.219,1.053-1.4,2.938a39.548,39.548,0,0,1-3.243,3.329s-.262,1.273,1.755,1.755c.917.219,1.715,1.1,1.089,2.06-.41.622-.78.884-1.186,1.55a.585.585,0,0,0,0,.665,1.272,1.272,0,0,0,.295.259c.1.072.511.28.482.413-.014.068-.234.144-.288.176-.277.169-.647.439-.349.791s.338.234.7.449a.222.222,0,0,1,.126.212.417.417,0,0,1-.083.2c-.169.255-.4.467-.557.73a3.237,3.237,0,0,0-.406,1.309c-.176,1.578.615,3.157,5.084,3.329s12.448-2.017,13.94,5.347.787,19.988-13.411,18.585c0,0,10.431,7.54,17.884-1.665s6.4-24.108,0-29.807-12.185-8.766-14.727-14.814-.992-10.492-.992-10.492Z" transform="translate(-188.322 -66.045)" fill="#fff"/>
    <path id="Path_22" data-name="Path 22" d="M336.965,67.567h-6.9c0-4.8-.086-9.7-.313-13.735-.7-12.624-16.306-21.742-16.306-21.742A23.45,23.45,0,0,1,328.7,37.149a23.748,23.748,0,0,1,8.227,17.259c.079,4.379.065,8.766.032,13.156Z" transform="translate(-256.421 -20.548)" fill="#fff"/>
    <path id="Path_23" data-name="Path 23" d="M256.652,10.244c.151,8.065-8.64,14.666-16.22,11.484-4.85-2.014-7.065-6.893-6.785-11.7a14.023,14.023,0,0,1,22.875-1.471,10.9,10.9,0,0,1,.129,1.69Z" transform="translate(-205.297 -2.129)" fill="#fff"/>
    <path id="Path_24" data-name="Path 24" d="M254.241,22.448c.176,9.507-10.19,17.327-19.132,13.548a12.742,12.742,0,0,1-7.1-7.49h0a12.731,12.731,0,0,1-.065-1.284,13.924,13.924,0,0,1,1.23-5.749,14.6,14.6,0,0,0,7.213,10.974,10.736,10.736,0,0,0,13.861-3.02,15.66,15.66,0,0,0,2.938-9.316c0-.457-.014-.92-.054-1.381a13.335,13.335,0,0,1,.9,1.323,14.158,14.158,0,0,1,.219,2.4Z" transform="translate(-201.657 -11.992)" fill="#fff"/>
    <path id="Path_25" data-name="Path 25" d="M256.867,30.694A14.027,14.027,0,0,1,229.3,34.351a16.543,16.543,0,0,0,6.192,6.134,12.68,12.68,0,0,0,16.363-3.57,18.435,18.435,0,0,0,3.463-11c0-.586-.022-1.179-.068-1.769a13.919,13.919,0,0,1,1.622,6.544Z" transform="translate(-202.528 -15.463)" fill="#fff"/>
    <path id="Path_26" data-name="Path 26" d="M286.4,90.558l.223,7.13a28.517,28.517,0,0,0-19.894-10.869,41.692,41.692,0,0,0-13.375.751.584.584,0,0,0-.068.014c-.079.018-.155.04-.234.058l-.518.129c-.165.043-.331.083-.5.129a43.146,43.146,0,0,0-6.425,2.341,29.734,29.734,0,0,0,2.693,2.233,30.754,30.754,0,0,0,10.679,4.9c4.57,1.194,9.359,1.262,13.911,2.524,8.446,2.337,18.01,9.589,20.351,18.4a6.216,6.216,0,0,1,.252,1.6V98.048L286.4,90.565Z" transform="translate(-212.973 -55.458)" fill="#fff"/>
    <path id="Path_27" data-name="Path 27" d="M179.584,287.214H155.12V262.75h0a24.463,24.463,0,0,0,24.464,24.464Z" transform="translate(-155.019 -168.273)" fill="#fff"/>
    <path id="Path_28" data-name="Path 28" d="M335.2,262.75v24.464H310.74A24.463,24.463,0,0,0,335.2,262.75Z" transform="translate(-254.685 -168.273)" fill="#fff"/>
    <path id="Path_29" data-name="Path 29" d="M221.484,103.7a19.671,19.671,0,0,0-5.354-11.542,43.872,43.872,0,0,0-12.214-9.151,16.945,16.945,0,0,1,3.143,5.354c3.48,8.971,2.348,19.146-4.146,26.481a21.575,21.575,0,0,1-25.942,5.106c-10.621-5.246-13.678-20.128-14.551-27.786-.327-2.833-.349-4.674-.349-4.674s-.7-21.016,0-33.64S178.377,32.11,178.377,32.11a23.457,23.457,0,0,0-15.252,5.059A23.748,23.748,0,0,0,154.9,54.428c-.151,8.615.043,17.259.043,25.881V96.8a56.385,56.385,0,0,0,1.6,13.749h-.007l.1.385c.151.568.313,1.136.485,1.7a48.845,48.845,0,0,0,4.6,10.97V123.6a32.167,32.167,0,0,0,10.927,11.545,33.943,33.943,0,0,0,33.252,0A33.681,33.681,0,0,0,219.661,117.3a34.267,34.267,0,0,0,1.816-13.6Z" transform="translate(-154.84 -20.561)" fill="#fff"/>
    <path id="Path_30" data-name="Path 30" d="M273.873,117.541c-5.9-3.531-12.6-5.426-19.3-6.756-5.828-1.154-10.733-2.956-14.645-7.655a10.456,10.456,0,0,0-.029,2.143v.014c.011.079.054.424.093.7.014.1.032.194.043.259a11.48,11.48,0,0,0,.424,1.55A17.662,17.662,0,0,0,243.7,113.1a38.4,38.4,0,0,0,12.128,9.151A59.186,59.186,0,0,1,274.373,136.3c4.825,5.631,8.176,12.656,7.486,20.2a30.791,30.791,0,0,1-8.971,19.02,39.785,39.785,0,0,1-6.508,5.066c-.654.385-7.274,4.192-11.725,4.484h3.711s29.865-.7,31.443-34.891C290.409,137.144,285.358,124.4,273.873,117.541Z" transform="translate(-209.29 -66.045)" fill="#fff"/>
    <path id="Path_31" data-name="Path 31" d="M296.666,5.283h0a2.646,2.646,0,0,0-2.646-2.646h0A2.646,2.646,0,0,0,296.666-.01h0a2.646,2.646,0,0,0,2.646,2.646h0A2.646,2.646,0,0,0,296.666,5.283Z" transform="translate(-243.977 0.01)" fill="#fff"/>
  </g>
</svg>
