<svg xmlns="http://www.w3.org/2000/svg" width="281.5" height="119.024" viewBox="0 0 281.5 119.024">
  <g id="Layer_1-2" transform="translate(178.5 0.01)">
    <g id="Group_54" data-name="Group 54" transform="translate(22.434 -0.01)">
      <path id="Path_21" data-name="Path 21" d="M216.478,103.13s-4.178,4.178-4.7,12.682c0,0,.219,1.053-1.4,2.938a39.548,39.548,0,0,1-3.243,3.329s-.262,1.273,1.755,1.755c.917.219,1.715,1.1,1.089,2.06-.41.622-.78.884-1.186,1.55a.585.585,0,0,0,0,.665,1.272,1.272,0,0,0,.295.259c.1.072.511.28.482.413-.014.068-.234.144-.288.176-.277.169-.647.439-.349.791s.338.234.7.449a.222.222,0,0,1,.126.212.417.417,0,0,1-.083.2c-.169.255-.4.467-.557.73a3.237,3.237,0,0,0-.406,1.309c-.176,1.578.615,3.157,5.084,3.329s12.448-2.017,13.94,5.347.787,19.988-13.411,18.585c0,0,10.431,7.54,17.884-1.665s6.4-24.108,0-29.807-12.185-8.766-14.727-14.814-.992-10.492-.992-10.492Z" transform="translate(-188.322 -66.045)" fill="#fff"/>
      <path id="Path_22" data-name="Path 22" d="M336.965,67.567h-6.9c0-4.8-.086-9.7-.313-13.735-.7-12.624-16.306-21.742-16.306-21.742A23.45,23.45,0,0,1,328.7,37.149a23.748,23.748,0,0,1,8.227,17.259c.079,4.379.065,8.766.032,13.156Z" transform="translate(-256.421 -20.548)" fill="#fff"/>
      <path id="Path_23" data-name="Path 23" d="M256.652,10.244c.151,8.065-8.64,14.666-16.22,11.484-4.85-2.014-7.065-6.893-6.785-11.7a14.023,14.023,0,0,1,22.875-1.471,10.9,10.9,0,0,1,.129,1.69Z" transform="translate(-205.297 -2.129)" fill="#fff"/>
      <path id="Path_24" data-name="Path 24" d="M254.241,22.448c.176,9.507-10.19,17.327-19.132,13.548a12.742,12.742,0,0,1-7.1-7.49h0a12.731,12.731,0,0,1-.065-1.284,13.924,13.924,0,0,1,1.23-5.749,14.6,14.6,0,0,0,7.213,10.974,10.736,10.736,0,0,0,13.861-3.02,15.66,15.66,0,0,0,2.938-9.316c0-.457-.014-.92-.054-1.381a13.335,13.335,0,0,1,.9,1.323,14.158,14.158,0,0,1,.219,2.4Z" transform="translate(-201.657 -11.992)" fill="#fff"/>
      <path id="Path_25" data-name="Path 25" d="M256.867,30.694A14.027,14.027,0,0,1,229.3,34.351a16.543,16.543,0,0,0,6.192,6.134,12.68,12.68,0,0,0,16.363-3.57,18.435,18.435,0,0,0,3.463-11c0-.586-.022-1.179-.068-1.769a13.919,13.919,0,0,1,1.622,6.544Z" transform="translate(-202.528 -15.463)" fill="#fff"/>
      <path id="Path_26" data-name="Path 26" d="M286.4,90.558l.223,7.13a28.517,28.517,0,0,0-19.894-10.869,41.692,41.692,0,0,0-13.375.751.584.584,0,0,0-.068.014c-.079.018-.155.04-.234.058l-.518.129c-.165.043-.331.083-.5.129a43.146,43.146,0,0,0-6.425,2.341,29.734,29.734,0,0,0,2.693,2.233,30.754,30.754,0,0,0,10.679,4.9c4.57,1.194,9.359,1.262,13.911,2.524,8.446,2.337,18.01,9.589,20.351,18.4a6.216,6.216,0,0,1,.252,1.6V98.048L286.4,90.565Z" transform="translate(-212.973 -55.458)" fill="#fff"/>
      <path id="Path_27" data-name="Path 27" d="M179.584,287.214H155.12V262.75h0a24.463,24.463,0,0,0,24.464,24.464Z" transform="translate(-155.019 -168.273)" fill="#fff"/>
      <path id="Path_28" data-name="Path 28" d="M335.2,262.75v24.464H310.74A24.463,24.463,0,0,0,335.2,262.75Z" transform="translate(-254.685 -168.273)" fill="#fff"/>
      <path id="Path_29" data-name="Path 29" d="M221.484,103.7a19.671,19.671,0,0,0-5.354-11.542,43.872,43.872,0,0,0-12.214-9.151,16.945,16.945,0,0,1,3.143,5.354c3.48,8.971,2.348,19.146-4.146,26.481a21.575,21.575,0,0,1-25.942,5.106c-10.621-5.246-13.678-20.128-14.551-27.786-.327-2.833-.349-4.674-.349-4.674s-.7-21.016,0-33.64S178.377,32.11,178.377,32.11a23.457,23.457,0,0,0-15.252,5.059A23.748,23.748,0,0,0,154.9,54.428c-.151,8.615.043,17.259.043,25.881V96.8a56.385,56.385,0,0,0,1.6,13.749h-.007l.1.385c.151.568.313,1.136.485,1.7a48.845,48.845,0,0,0,4.6,10.97V123.6a32.167,32.167,0,0,0,10.927,11.545,33.943,33.943,0,0,0,33.252,0A33.681,33.681,0,0,0,219.661,117.3a34.267,34.267,0,0,0,1.816-13.6Z" transform="translate(-154.84 -20.561)" fill="#fff"/>
      <path id="Path_30" data-name="Path 30" d="M273.873,117.541c-5.9-3.531-12.6-5.426-19.3-6.756-5.828-1.154-10.733-2.956-14.645-7.655a10.456,10.456,0,0,0-.029,2.143v.014c.011.079.054.424.093.7.014.1.032.194.043.259a11.48,11.48,0,0,0,.424,1.55A17.662,17.662,0,0,0,243.7,113.1a38.4,38.4,0,0,0,12.128,9.151A59.186,59.186,0,0,1,274.373,136.3c4.825,5.631,8.176,12.656,7.486,20.2a30.791,30.791,0,0,1-8.971,19.02,39.785,39.785,0,0,1-6.508,5.066c-.654.385-7.274,4.192-11.725,4.484h3.711s29.865-.7,31.443-34.891C290.409,137.144,285.358,124.4,273.873,117.541Z" transform="translate(-209.29 -66.045)" fill="#fff"/>
      <path id="Path_31" data-name="Path 31" d="M296.666,5.283h0a2.646,2.646,0,0,0-2.646-2.646h0A2.646,2.646,0,0,0,296.666-.01h0a2.646,2.646,0,0,0,2.646,2.646h0A2.646,2.646,0,0,0,296.666,5.283Z" transform="translate(-243.977 0.01)" fill="#fff"/>
    </g>
    <g id="Group_53" data-name="Group 53" transform="translate(-178 35.99)">
      <g id="Group_77266" data-name="Group 77266" transform="translate(-18.639 5.85)">
        <path id="Path_1" data-name="Path 1" d="M51.84,506.732v-.042c.431,0,.668-.3.705-.891v-5.381c-.032-.6-.274-.891-.705-.891v-.037h2.245v.037c-.445,0-.682.311-.71.928v5.316c.023.617.26.928.71.928v.042H51.84Z" transform="translate(-33.201 -458.885)" fill="#fff" stroke="#fff" stroke-width="1"/>
        <path id="Path_2" data-name="Path 2" d="M66.02,499.39c.237,0,.385.07.441.2a1.75,1.75,0,0,1,.074.608v.209l0,5.159c.009.891.58.891.747.3h.056a1.022,1.022,0,0,1-.942.83c-.455-.023-.705-.334-.687-1.132v-5.108a1.187,1.187,0,0,0-.2-.816.679.679,0,0,0-.51-.209v-.042h1.034Z" transform="translate(-40.25 -458.831)" fill="#fff" stroke="#fff" stroke-width="1"/>
        <path id="Path_3" data-name="Path 3" d="M78.395,499.39c.237,0,.385.07.441.2a1.75,1.75,0,0,1,.074.608v.209l0,5.159c.009.891.58.891.747.3H79.7a1.022,1.022,0,0,1-.942.83c-.455-.023-.705-.334-.687-1.132v-5.108a1.162,1.162,0,0,0-.2-.816.7.7,0,0,0-.51-.209v-.042h1.035Z" transform="translate(-46.882 -458.831)" fill="#fff" stroke="#fff" stroke-width="1"/>
        <path id="Path_4" data-name="Path 4" d="M91.23,503.55c.218,0,.357.056.422.172a1.9,1.9,0,0,1,.1.775v.97l-.014,1.137a5.1,5.1,0,0,0,.056.756,1.584,1.584,0,0,0,.529,1.048,1.66,1.66,0,0,0,1.1.367,1.91,1.91,0,0,0,.482-.06,1.791,1.791,0,0,0,.974-.552.8.8,0,0,0,.19-.394v-3.159a1.155,1.155,0,0,0-.218-.8.661.661,0,0,0-.5-.218v-.037h1.03c.227,0,.366.056.431.172a1.681,1.681,0,0,1,.088.649v3.6c.037.724.575.705.742.13H96.7a1.017,1.017,0,0,1-.942.826c-.482-.014-.654-.394-.677-.793l-.009.014a1.963,1.963,0,0,1-.571.469,2.671,2.671,0,0,1-1.3.325,3.124,3.124,0,0,1-.459-.037,2.209,2.209,0,0,1-1.164-.534,2.032,2.032,0,0,1-.659-1.582v-2.166a1.17,1.17,0,0,0-.209-.812.683.683,0,0,0-.51-.213v-.037h1.035Z" transform="translate(-53.765 -461.061)" fill="#fff" stroke="#fff" stroke-width="1"/>
        <path id="Path_5" data-name="Path 5" d="M113.509,503.425a.465.465,0,0,1,.418.158c.065.107.093.125.093.422v1.011a2.136,2.136,0,0,1,3.8-.687l.084.135a1.965,1.965,0,0,1,.209.524,2.2,2.2,0,0,1,1.832-1.563,2.255,2.255,0,0,1,1.874.756,2.335,2.335,0,0,1,.445,1.373v2.315c.06.761.575.733.733.167h.06a1.012,1.012,0,0,1-.942.83c-.557-.014-.7-.515-.687-1.025v-1.777c0-.107,0-.209,0-.311a7.16,7.16,0,0,0-.042-.775,1.415,1.415,0,0,0-1.225-1.327c-.891-.162-1.944.826-2,1.925v2.292c.028.622.269.932.714.932v.042h-2.259V508.8a.658.658,0,0,0,.482-.195,1.087,1.087,0,0,0,.227-.733c0-1.086,0-1.684,0-1.786s0-.213,0-.315a7.072,7.072,0,0,0-.042-.77,1.412,1.412,0,0,0-1.225-1.331c-1.1-.181-1.934.9-2.06,1.935v2.264a1.138,1.138,0,0,0,.227.733.675.675,0,0,0,.492.2v.042h-2.264V508.8c.45,0,.682-.311.714-.932v-3.377a1.19,1.19,0,0,0-.209-.821.7.7,0,0,0-.51-.209v-.042H113.5Z" transform="translate(-65.704 -460.992)" fill="#fff" stroke="#fff" stroke-width="1"/>
        <path id="Path_6" data-name="Path 6" d="M143.83,501.344c.237,0,.39.07.445.2a1.987,1.987,0,0,1,.07.645v3.428c0,.9.571.9.738.3h.056a1.017,1.017,0,0,1-.937.83c-.575-.019-.682-.533-.687-1.081v-3.257a1.184,1.184,0,0,0-.209-.816.693.693,0,0,0-.506-.209v-.042h1.03Zm.394-1.707a.564.564,0,1,1-.965.4.516.516,0,0,1,.167-.4.525.525,0,0,1,.4-.167A.532.532,0,0,1,144.224,499.637Z" transform="translate(-81.964 -458.874)" fill="#fff" stroke="#fff" stroke-width="1"/>
        <path id="Path_7" data-name="Path 7" d="M157.265,503.495a.465.465,0,0,1,.418.158c.065.107.093.125.093.417v1.007a2.23,2.23,0,0,1,1.837-1.563,2.267,2.267,0,0,1,1.879.752,2.346,2.346,0,0,1,.445,1.373V507.9c.065.756.575.728.738.167h.056a1.017,1.017,0,0,1-.937.83c-.557-.019-.705-.515-.687-1.025,0-.107,0-1.624,0-1.721s0-.213,0-.315a7.139,7.139,0,0,0-.042-.77,1.406,1.406,0,0,0-1.225-1.322c-1.1-.181-1.934.9-2.06,1.925v2.255a1.129,1.129,0,0,0,.227.733.675.675,0,0,0,.492.2v.042h-2.264v-.042c.45,0,.682-.311.714-.932v-3.363a1.176,1.176,0,0,0-.209-.817.7.7,0,0,0-.51-.209v-.042h1.035Z" transform="translate(-89.169 -461.029)" fill="#fff" stroke="#fff" stroke-width="1"/>
        <path id="Path_8" data-name="Path 8" d="M183.584,508.906c-.575-.014-.714-.557-.682-1.039a3.03,3.03,0,0,1-1.327.812,4.012,4.012,0,0,1-1.22.209c-.083,0-.172,0-.26-.009a1.961,1.961,0,0,1-.789-.241,1.622,1.622,0,0,1-.353-.292,1.39,1.39,0,0,1-.334-.909,1.926,1.926,0,0,1,.042-.417,1.338,1.338,0,0,1,.506-.765,2.1,2.1,0,0,1,.733-.343,7.23,7.23,0,0,1,.724-.13c.26-.032.5-.07.7-.1a4.726,4.726,0,0,0,1.011-.237.812.812,0,0,0,.487-.39.45.45,0,0,0,.028-.167,1.322,1.322,0,0,0-.863-1.095,1.5,1.5,0,0,0-.585-.1c-1.072.046-1.489,1.178-1.559,1.475l-.58-.4a2.246,2.246,0,0,1,.473-.64,2.536,2.536,0,0,1,1.689-.6,2.72,2.72,0,0,1,.612.065,2.58,2.58,0,0,1,.6.209,1.82,1.82,0,0,1,.538.385,1.674,1.674,0,0,1,.343.464,2.754,2.754,0,0,1,.227,1.16v2.032c0,.844.571.849.738.251h.056a1.017,1.017,0,0,1-.942.826Zm-.872-1.025a1.64,1.64,0,0,0,.19-.209v-1.99c0-.084,0-.167,0-.237l-.023-.232a.831.831,0,0,1-.176.185,2.886,2.886,0,0,1-.654.306c-.816.26-1.387.167-1.921.422a1.159,1.159,0,0,0-.673,1.09,1.193,1.193,0,0,0,.761,1.188,2.271,2.271,0,0,0,.816.1,2.533,2.533,0,0,0,1.689-.622Z" transform="translate(-101.167 -461.045)" fill="#fff" stroke="#fff" stroke-width="1"/>
        <path id="Path_9" data-name="Path 9" d="M200.9,507.561a1.058,1.058,0,0,1-.543-1.09v-3.953h-.816v-.167a1.573,1.573,0,0,0,1.29-.659l.348-.482c0,.422,0,.807,0,1.146h1.545v.167h-1.545c0,1.113,0,2.681,0,4.166-.037.835,1.146.881,1.457.292h.07c-.186.58-1.345.844-1.814.585Z" transform="translate(-112.382 -459.807)" fill="#fff" stroke="#fff" stroke-width="1"/>
        <path id="Path_10" data-name="Path 10" d="M215.81,508.57a2.678,2.678,0,0,1-1.438-1.345,2.53,2.53,0,0,1-.232-.993,3.492,3.492,0,0,1,.019-.5,2.635,2.635,0,0,1,.589-1.378,2.436,2.436,0,0,1,.765-.6,2.689,2.689,0,0,1,4.022,2.12l-.645-.018-3.966.056a2.827,2.827,0,0,0,1.86,2.63,2.355,2.355,0,0,0,.636.088,2.092,2.092,0,0,0,1.392-.5,2.358,2.358,0,0,0,.654-1.011l.13.009a2.416,2.416,0,0,1-2.394,1.721,3.6,3.6,0,0,1-1.387-.292Zm2.927-2.848c-.167-1.921-1.763-2.77-3.053-1.726a1.921,1.921,0,0,0-.51.636,2.62,2.62,0,0,0-.246,1.141Z" transform="translate(-120.209 -460.992)" fill="#fff" stroke="#fff" stroke-width="1"/>
        <path id="Path_11" data-name="Path 11" d="M251.259,506.713v-.042a.659.659,0,0,0,.473-.19,1.074,1.074,0,0,0,.232-.705v-1.9L250,500.64a4.23,4.23,0,0,0-.612-.752,1.035,1.035,0,0,0-.645-.362v-.037h2.241v.037c-.213,0-.32.121-.325.353a1,1,0,0,0,.167.529l1.888,3.108,2.013-3.326a.663.663,0,0,0,.1-.32c0-.227-.1-.339-.306-.343v-.037h1.424v.037a1.32,1.32,0,0,0-1.053.719l-2.092,3.461v2.036a1.054,1.054,0,0,0,.227.733.674.674,0,0,0,.478.195v.042Z" transform="translate(-138.758 -458.885)" fill="#fff" stroke="#fff" stroke-width="1"/>
        <path id="Path_12" data-name="Path 12" d="M272.633,508.839a3.344,3.344,0,0,1-1.03-.167,3.108,3.108,0,0,1-.956-.52,2.7,2.7,0,0,1-.724-.886,2.5,2.5,0,0,1,0-2.273,2.777,2.777,0,0,1,.738-.877,3.193,3.193,0,0,1,1.967-.687,3.274,3.274,0,0,1,2.027.687,2.594,2.594,0,0,1,.733.877,2.455,2.455,0,0,1,.283,1.137,2.553,2.553,0,0,1-.274,1.141,2.647,2.647,0,0,1-.724.886,3.118,3.118,0,0,1-1.958.677h-.088Zm.988-.371a2.027,2.027,0,0,0,.719-.636,2.764,2.764,0,0,0,.39-.83,3.341,3.341,0,0,0,.116-.872,3.517,3.517,0,0,0-.107-.877,2.587,2.587,0,0,0-.385-.84,1.985,1.985,0,0,0-.724-.645,2.051,2.051,0,0,0-1.93,0,2.066,2.066,0,0,0-.724.645,2.6,2.6,0,0,0-.38.844,3.264,3.264,0,0,0-.116.872,3.139,3.139,0,0,0,.121.872,2.815,2.815,0,0,0,.39.83,2.165,2.165,0,0,0,.714.64,2.1,2.1,0,0,0,.96.255,2.06,2.06,0,0,0,.956-.26Z" transform="translate(-149.967 -460.997)" fill="#fff" stroke="#fff" stroke-width="1"/>
        <path id="Path_13" data-name="Path 13" d="M291.925,503.55c.218,0,.357.056.422.172a1.9,1.9,0,0,1,.1.775v.97l-.014,1.137a5.8,5.8,0,0,0,.051.756,1.584,1.584,0,0,0,.529,1.048,1.66,1.66,0,0,0,1.1.367,1.946,1.946,0,0,0,.487-.06,1.791,1.791,0,0,0,.974-.552.766.766,0,0,0,.19-.394v-3.159a1.131,1.131,0,0,0-.218-.8.661.661,0,0,0-.5-.218v-.037h1.03c.227,0,.367.056.431.172a1.593,1.593,0,0,1,.088.649v3.6c.037.724.575.705.742.13h.056a1.013,1.013,0,0,1-.942.826c-.487-.014-.654-.394-.677-.793l-.009.014a1.964,1.964,0,0,1-.571.469,2.671,2.671,0,0,1-1.3.325,3.123,3.123,0,0,1-.459-.037,2.209,2.209,0,0,1-1.164-.534,2.032,2.032,0,0,1-.659-1.582v-.158l0-2.009a1.17,1.17,0,0,0-.209-.812.683.683,0,0,0-.51-.213v-.037h1.035Z" transform="translate(-161.359 -461.061)" fill="#fff" stroke="#fff" stroke-width="1"/>
        <path id="Path_14" data-name="Path 14" d="M313.21,508.86v-.037c.445,0,.682-.315.714-.932v-3.363a1.212,1.212,0,0,0-.2-.816.7.7,0,0,0-.51-.209v-.042h1.035c.237,0,.385.07.441.2a2.175,2.175,0,0,1,.07.645v.515a2.5,2.5,0,0,1,2.329-1.359,1.843,1.843,0,0,1,1.192.51l-.566.58a.553.553,0,0,0-.111-.223,1.974,1.974,0,0,0-.292-.311,1.187,1.187,0,0,0-.742-.218,1.706,1.706,0,0,0-1.2.445,1.828,1.828,0,0,0-.608,1.294v2.347c.033.617.274.932.719.932v.037h-2.259Z" transform="translate(-173.32 -461.013)" fill="#fff" stroke="#fff" stroke-width="1"/>
        <path id="Path_15" data-name="Path 15" d="M350.414,499.44a3.178,3.178,0,0,1,1.007.162,1.55,1.55,0,0,1,1.123,1.577,1.221,1.221,0,0,1-.334.789,1.612,1.612,0,0,1-.714.427,2.516,2.516,0,0,1,.835.292,1.53,1.53,0,0,1,.608.649,2.652,2.652,0,0,1,.213,1.22,2.143,2.143,0,0,1-.724,1.461,2.391,2.391,0,0,1-1.619.645H346.86v-.042c.431,0,.663-.3.7-.886v-5.358c-.032-.6-.264-.891-.7-.891v-.037h3.549Zm-.705.162q-.64-.007-1.322,0V506.5h2.436a1.291,1.291,0,0,0,1.081-.534,2.188,2.188,0,0,0,.417-1.317,2.4,2.4,0,0,0-.3-1.294,1.453,1.453,0,0,0-.728-.608,2.546,2.546,0,0,0-.909-.148,5.514,5.514,0,0,0-.826.056,1.813,1.813,0,0,1-.482.019c-.227-.07-.348-.172-.376-.315a.382.382,0,0,1,.116-.362.329.329,0,0,1,.394-.046,2.788,2.788,0,0,0,.946.339,1.416,1.416,0,0,0,1.15-.334,1.451,1.451,0,0,0,.413-1.174,1.171,1.171,0,0,0-.366-.765,1.419,1.419,0,0,0-.979-.408h-.663Zm-.436,2.547c-.056-.023-.111-.051-.167-.079-.107-.023-.176,0-.218.056a.215.215,0,0,0,0,.213.4.4,0,0,0,.255.181,1.6,1.6,0,0,0,.464.014,3.711,3.711,0,0,0,.52-.083,3.04,3.04,0,0,1-.854-.3Z" transform="translate(-191.36 -458.858)" fill="#fff" stroke="#fff" stroke-width="1"/>
        <path id="Path_16" data-name="Path 16" d="M371.31,508.57a2.678,2.678,0,0,1-1.438-1.345,2.529,2.529,0,0,1-.232-.993,3.492,3.492,0,0,1,.019-.5,2.634,2.634,0,0,1,.589-1.378,2.436,2.436,0,0,1,.766-.6,2.689,2.689,0,0,1,4.022,2.12l-.645-.018-3.966.056a2.827,2.827,0,0,0,1.86,2.63,2.356,2.356,0,0,0,.636.088,2.092,2.092,0,0,0,1.392-.5,2.359,2.359,0,0,0,.654-1.011l.13.009a2.416,2.416,0,0,1-2.394,1.721,3.6,3.6,0,0,1-1.387-.292Zm2.923-2.848c-.167-1.921-1.763-2.77-3.052-1.726a1.92,1.92,0,0,0-.51.636,2.619,2.619,0,0,0-.246,1.141Z" transform="translate(-203.572 -460.992)" fill="#fff" stroke="#fff" stroke-width="1"/>
        <path id="Path_17" data-name="Path 17" d="M395.224,508.906c-.575-.014-.714-.557-.682-1.039a3.03,3.03,0,0,1-1.327.812,4.012,4.012,0,0,1-1.22.209c-.083,0-.172,0-.26-.009a1.94,1.94,0,0,1-.789-.241,1.622,1.622,0,0,1-.353-.292,1.39,1.39,0,0,1-.334-.909,1.927,1.927,0,0,1,.042-.417,1.338,1.338,0,0,1,.506-.765,2.064,2.064,0,0,1,.733-.343,7.227,7.227,0,0,1,.724-.13c.26-.032.5-.07.7-.1a4.727,4.727,0,0,0,1.011-.237.788.788,0,0,0,.482-.39.451.451,0,0,0,.028-.167,1.322,1.322,0,0,0-.863-1.095,1.5,1.5,0,0,0-.585-.1c-1.072.046-1.489,1.178-1.554,1.475l-.58-.4a2.245,2.245,0,0,1,.473-.64,2.536,2.536,0,0,1,1.689-.6,2.72,2.72,0,0,1,.612.065,2.579,2.579,0,0,1,.6.209,1.881,1.881,0,0,1,.538.385,1.675,1.675,0,0,1,.343.464,2.755,2.755,0,0,1,.227,1.16v2.032c0,.844.571.849.738.251h.056a1.013,1.013,0,0,1-.942.826Zm-.872-1.025a1.636,1.636,0,0,0,.19-.209v-1.99c0-.084,0-.167,0-.237l-.023-.232a.832.832,0,0,1-.176.185,2.888,2.888,0,0,1-.654.306c-.817.26-1.387.167-1.921.422a1.159,1.159,0,0,0-.673,1.09,1.193,1.193,0,0,0,.761,1.188,2.271,2.271,0,0,0,.816.1,2.533,2.533,0,0,0,1.689-.622Z" transform="translate(-214.626 -461.045)" fill="#fff" stroke="#fff" stroke-width="1"/>
        <path id="Path_18" data-name="Path 18" d="M411.26,503.55c.218,0,.357.056.422.172a1.9,1.9,0,0,1,.1.775v.97l-.014,1.137a5.094,5.094,0,0,0,.056.756,1.584,1.584,0,0,0,.529,1.048,1.66,1.66,0,0,0,1.1.367,1.91,1.91,0,0,0,.482-.06,1.791,1.791,0,0,0,.974-.552.8.8,0,0,0,.19-.394v-3.159a1.154,1.154,0,0,0-.218-.8.66.66,0,0,0-.5-.218v-.037h1.03c.227,0,.366.056.431.172a1.681,1.681,0,0,1,.088.649v3.6c.037.724.575.705.742.13h.056a1.017,1.017,0,0,1-.942.826c-.483-.014-.654-.394-.677-.793l-.009.014a1.963,1.963,0,0,1-.571.469,2.671,2.671,0,0,1-1.3.325,3.124,3.124,0,0,1-.459-.037,2.209,2.209,0,0,1-1.164-.534,2.032,2.032,0,0,1-.659-1.582v-2.166a1.17,1.17,0,0,0-.209-.812.683.683,0,0,0-.51-.213v-.037h1.035Z" transform="translate(-225.332 -461.061)" fill="#fff" stroke="#fff" stroke-width="1"/>
        <path id="Path_19" data-name="Path 19" d="M433.869,507.561a1.058,1.058,0,0,1-.543-1.09v-3.953h-.816v-.167a1.573,1.573,0,0,0,1.29-.659l.348-.482c0,.422,0,.807,0,1.146H435.7v.167h-1.545v4.166c-.037.835,1.146.881,1.457.292h.07c-.186.58-1.345.844-1.814.585Z" transform="translate(-237.276 -459.807)" fill="#fff" stroke="#fff" stroke-width="1"/>
        <path id="Path_20" data-name="Path 20" d="M448.728,510.615l.042-.886c.612.789,1.995-.056,2.3-.9l.009-.019a.209.209,0,0,0,.042-.107c-.009-.023-.121-.237-.334-.654s-.469-.891-.752-1.433-.645-1.243-1.09-2.088c-.385-.663-.761-1-1.146-1v-.042h2.264v.042c-.246,0-.367.116-.367.348a1.608,1.608,0,0,0,.144.575l1.749,3.359,1.842-3.535a.851.851,0,0,0,.1-.38.684.684,0,0,0-.056-.232.265.265,0,0,0-.274-.139v-.042h1.429v.042c-.385,0-.733.278-1.058.826l-2.366,4.532a3.83,3.83,0,0,1-.3.557,3.1,3.1,0,0,1-.436.543,2.281,2.281,0,0,1-1.113.622,2.157,2.157,0,0,1-.385.032,2.471,2.471,0,0,1-.255-.014Z" transform="translate(-245.473 -461.024)" fill="#fff" stroke="#fff" stroke-width="1"/>
      </g>
      <path id="Path_32" data-name="Path 32" d="M0,419.037v-.216c1.913,0,2.963-1.309,3.135-3.952l-.022-21.26.022-2.535c-.173-2.621-1.222-3.952-3.135-3.952v-.173H9.945v.173c-2,0-3.027,1.374-3.157,4.1v1.5q-.032,1.03-.022,25.557H17.2c3.995-.129,6.465-1.4,7.475-3.8l.173.065L23,419.037Z" transform="translate(0 -386.82)" fill="#fff"/>
      <path id="Path_33" data-name="Path 33" d="M81.134,418.656a12.054,12.054,0,0,1-7.087-3.973A14.206,14.206,0,0,1,71,407.575a23.3,23.3,0,0,1-.237-3.459c0-.514.022-1.01.043-1.5l.022-1.827-.022-9.881c-.151-2.664-1.183-3.973-3.114-3.973v-.173H77.7v.173a2.965,2.965,0,0,0-2.147.838,4.57,4.57,0,0,0-1.032,3.135v11.34c-.022.514-.043,1.01-.043,1.525a35.485,35.485,0,0,0,.428,5.433,10.125,10.125,0,0,0,6.594,8.054,10.672,10.672,0,0,0,3.286.514,12.019,12.019,0,0,0,3.351-.493,9.669,9.669,0,0,0,5.584-4.232,10.722,10.722,0,0,0,1.525-4.318,26.71,26.71,0,0,0,.173-2.963V391.29c-.324-2.855-1.266-4.275-2.815-4.275v-.194h6.379v.194a2.354,2.354,0,0,0-2,1.33,5.705,5.705,0,0,0-.838,2.941v14.346a29.232,29.232,0,0,1-.151,3.114,10.866,10.866,0,0,1-.751,3.027,11.964,11.964,0,0,1-6.832,6.357,13.624,13.624,0,0,1-4.53.795,14.871,14.871,0,0,1-2.751-.28Z" transform="translate(-43.352 -386.698)" fill="#fff"/>
      <path id="Path_34" data-name="Path 34" d="M183.442,418.973v-.194c1.974,0,3.027-1.374,3.135-4.124v-1.5q.032-1.963.022-25.385c-2.963-.043-5.156.32-6.551,1.1a4.776,4.776,0,0,0-2.556,3.265,11.415,11.415,0,0,0,.173,4.789c.388,1.783.9,3.653,1.525,5.605a58.66,58.66,0,0,1,1.74,6.637,11.564,11.564,0,0,1-.194,5.843c-.795,1.827-1.719,2.643-2.729,2.449a3.734,3.734,0,0,1-2.556-2.341l-12.714-26.46v25.859c.32,2.833,1.244,4.275,2.79,4.275v.194H159.19v-.194a2.325,2.325,0,0,0,1.974-1.352,5.39,5.39,0,0,0,.838-2.92V391.06c0-2.47-.946-3.822-2.812-4.038v-.173h6.785l12.092,24.356c.579,1.032,1.071,1.481,1.5,1.374.406-.086.579-.773.514-2.039a16.707,16.707,0,0,0-.493-3.437q-.485-1.866-1.1-3.93a57.816,57.816,0,0,1-1.5-5.756,13.3,13.3,0,0,1-.151-5.242,5.706,5.706,0,0,1,2.707-3.822c1.5-.967,3.844-1.46,7.022-1.5h6.81v.173c-1.913,0-2.963,1.33-3.135,3.973l.022,21.3-.022,2.513c.173,2.643,1.222,3.973,3.135,3.973v.194h-9.945Z" transform="translate(-101.952 -386.755)" fill="#fff"/>
      <path id="Path_35" data-name="Path 35" d="M266.574,415.048a14.679,14.679,0,0,1-5.26-9.492,17.445,17.445,0,0,1-.194-2.729,11.785,11.785,0,0,1,.151-2,14.873,14.873,0,0,1,5.325-9.773,18.148,18.148,0,0,1,11.6-3.995,18.5,18.5,0,0,1,11.729,3.995c3.628,2.876,5.454,7.173,5.454,12.93a12.072,12.072,0,0,1-.363,2.556,14.134,14.134,0,0,1-5.07,8.5,19,19,0,0,1-23.364,0Zm22.871-19.718q-4.541-6.283-10.1-7.216A13.114,13.114,0,0,0,263.993,398.7c-.751,3.65.28,7.666,3.092,12.006q4.638,6.186,10.157,7.152a13.022,13.022,0,0,0,15.227-10.5q1.095-5.474-3.027-12.027Zm-15.871,7.885c2.686-.514,3.588-1.417,4.1-4.1.493,2.686,1.417,3.588,4.1,4.1-2.686.514-3.61,1.4-4.1,4.081C277.163,404.61,276.261,403.729,273.575,403.215Z" transform="translate(-167.233 -386.89)" fill="#fff"/>
      <path id="Path_36" data-name="Path 36" d="M363.564,386.61h9.643c1.481,0,3.524,0,6.163-.022a12.547,12.547,0,0,1,5.113.967,9.008,9.008,0,0,1,3.822,2.9,7.948,7.948,0,0,1,1.525,4.725,7.213,7.213,0,0,1-1.1,3.865,10.28,10.28,0,0,1-2.92,3.092,8.681,8.681,0,0,1-4.34,1.568,21.618,21.618,0,0,1-4.275-.086,20.194,20.194,0,0,0-2.47-.151c-.432.022-.708.151-.795.388a.574.574,0,0,0,.216.665,1.315,1.315,0,0,0,1.071.259,12.145,12.145,0,0,1,7.216,1.053,9.732,9.732,0,0,1,4.318,5.649,24.846,24.846,0,0,0,1.374,2.837,6.22,6.22,0,0,0,2.211,2.276,4.721,4.721,0,0,0,3.48.406v.385a8.286,8.286,0,0,1-2.319,1.118,7.7,7.7,0,0,1-2.082.367,4.479,4.479,0,0,1-3.092-1.287,11.244,11.244,0,0,1-2.168-2.941c-.579-1.161-1.1-2.254-1.5-3.308-.043-.108-.086-.237-.129-.345a10.409,10.409,0,0,0-2.664-4.167,7.529,7.529,0,0,0-4.832-1.481,1.815,1.815,0,0,1-1.5-.665,1.12,1.12,0,0,1-.065-1.183,1.313,1.313,0,0,1,1.161-.665c.838.022,1.7.043,2.535.108a21.438,21.438,0,0,0,4.426-.065,4.85,4.85,0,0,0,3.308-1.978c.838-1.115,1.266-3.027,1.309-5.735a8.539,8.539,0,0,0-1.654-5.454,6.709,6.709,0,0,0-5.156-2.384l-9.086.022v5.476q0,10.954.022,21.692c.129,2.729,1.161,4.1,3.135,4.1v.194h-9.9v-.194c1.913,0,2.941-1.33,3.092-3.973V390.759c-.151-2.643-1.183-3.973-3.092-3.973v-.173Z" transform="translate(-232.84 -386.587)" fill="#fff"/>
      <path id="Path_37" data-name="Path 37" d="M465.573,386.7l10.157,26.1a15.87,15.87,0,0,0,2.815,4.746,3.758,3.758,0,0,0,2.556,1.161v.194h-9.945v-.194a1.676,1.676,0,0,0,1.589-1.075,2.436,2.436,0,0,0,.216-1.032,5.8,5.8,0,0,0-.449-2.017c-1.676-4.232-3.178-7.989-4.6-11.725H457.566c-.751,1.762-1.762,3.8-2.319,5.5-1.7,4.638.151,9.881,6.292,9.449a6.124,6.124,0,0,0,5.07-3.5l.151.065-1.87,4.487h-5.134c-4.9-.406-7.281-5.156-5.39-10.654,2.405-6.53,7.73-14.756,7.774-19.5-.259-1.248-1.136-1.848-2.643-1.8l-.022-.194h6.1Zm-7.691,15.4h9.837c-1.589-4.189-3.135-8.248-4.919-12.52C461.92,394.049,459.709,398.217,457.882,402.1Z" transform="translate(-290.581 -386.659)" fill="#fff"/>
    </g>
  </g>
</svg>
